<?xml version="1.0" encoding="utf-8"?>
<!-- Generator: Adobe Illustrator 18.1.1, SVG Export Plug-In . SVG Version: 6.00 Build 0)  -->
<!DOCTYPE svg PUBLIC "-//W3C//DTD SVG 1.1//EN" "http://www.w3.org/Graphics/SVG/1.1/DTD/svg11.dtd">
<svg version="1.1" id="Layer_1" xmlns="http://www.w3.org/2000/svg" xmlns:xlink="http://www.w3.org/1999/xlink" x="0px" y="0px"
	 viewBox="0 0 248.3 230.5" enable-background="new 0 0 248.3 230.5" xml:space="preserve">
<path fill="#FFFFFF" d="M177.8,88.8c2.1-0.5,5.5,1.1,6.4-1.1c-0.5-1.2-0.9-2.6-0.8-3.8c-0.4,0-0.4,0.8-0.4,0.4
	c-0.5,0.9-1.2,0.1-1.8,1.3c-0.2,0.3-1.3,2.4-1.7,2.4c0,0.3-0.2,0.5-0.6,0.6C178.4,88.3,178.1,88,177.8,88.8 M174.2,88.1
	c0.7,0.7,2.7,1.3,3.2,0.5c-0.1,0.1-0.3,0.2-0.4,0.2c0.1-0.4-0.2-2.4-0.4-1.5c-0.1-0.2-0.2-0.4-0.3-0.5c-0.1,0.3-0.7,0.7-0.7,0.8
	c0-0.1-0.1-0.2-0.3-0.2C175,87.8,174.6,87.7,174.2,88.1C174.2,88.1,174.4,87.9,174.2,88.1 M166.5,91.6h1.1c-0.7-1.2-1.1-2.7-1.6-3.8
	c0.1,0.7-1.3,1.1-1.3,0.9c-1.2,0.6-0.7-1.9-0.4-2.5c-0.2-0.1-0.4-0.2-0.5,0.1c-0.8-0.1-0.8,0.7-1.3,0.7c0,0.2,0.1,0.4,0.3,0.4
	c-0.9,0.4,0.1,1.2,0.3,1.9H163c0.8-0.1,3.5,1.5,3.7,1.8C166.5,91.2,166.4,91.4,166.5,91.6C166.5,91.6,166.5,91.5,166.5,91.6
	 M165.9,91.6h0.4C166.2,91.5,166,91.5,165.9,91.6 M205.5,93.8h0.2H205.5z M196.9,93.5c-0.4,0.5-1.6,1.1,0.6,0.7
	c1.3-0.4,2.5,0.1,3.3,1c1.5,0.6,2.3,0,3.6-0.7c0.8-1.2,1-2.1-0.4-2.5c-0.4-0.3,0.1-0.7,0.3-0.9c0,0,0.2-3.3-0.3-2.8
	c-0.9-0.7-2,1.7-3,1.9c-0.4,0.1-0.9-0.3-2.4,1.4C198.5,91.7,198.3,91.6,196.9,93.5 M192.1,88.5C192.1,88.5,192.2,88.5,192.1,88.5
	L192.1,88.5L192.1,88.5z M187.7,86.2c-1.8,0.8-3.7,1.9-3.7,4c1.7-1.5,2.3-1.3,4.4-1.4c-1.4-0.2-0.7-1.2-0.3-2.1
	C187.8,86.5,187.7,86.4,187.7,86.2C187.7,86.2,187.7,86.2,187.7,86.2 M172.4,92.8c-0.2-0.7-4.1-2.5-2.3-2.5c-1-0.2-2.1-0.3-2.2-1.4
	c0.4-0.9-0.4-2.2-0.4-2.1c-0.3,0-0.5,0.1-0.6,0.4c0.1-0.2,0-0.4-0.1-0.5c-0.6,1,0,1.8,0.5,2.9c1.3,2.6,1.9,3.4,5.1,3.5L172.4,92.8z
	 M182.2,91.3c0.1-3.6-7.2-0.8-8.5-2.7c-1,0.4-2,1.1-2.9,1.5c-0.7,0.6-0.1,1,2,2.5c0.3,0.2,0.6,0.2,0.9,0.6c-0.1-1,2,1.4,3.2,0.3
	c0.5,0.2,3.8-1.6,3.8-1C182.2,92.7,181.6,91.3,182.2,91.3C182.2,91.3,182.1,91.3,182.2,91.3 M184.5,94.6c0.2,1.9,1.9,3.4,3.9,2.8
	c0.1-0.1-0.2-1.3-0.2-1.5c0.5-0.5,1.8-0.3,2.5-0.5c1.2-0.2,2.6-0.4,3.8-0.7c0.4-0.6,3.3-2.5,3.6-3.8c0.2-1,2.9-1.7,2.6-1.8
	c-3.8-0.9-4.9-2.9-6.6-2.8c-2,2.1-2.3,3.9-4.7,3.4c0-0.2-0.9-0.1-0.9-0.3c-1.6-1.3-4,0.8-4.4,2.4c0.1,0.1,0.1,0.1,0.1,0.2
	C184,93.1,183.8,93.8,184.5,94.6 M184.2,94.7c-0.2-0.1-0.1-0.3-0.4-0.3c0-0.4-6.2-0.9,0,1.1C184.5,95.5,184.1,95.1,184.2,94.7
	 M190.9,97C190.9,97,190.6,97.2,190.9,97c2.3-1.2,4.9-1.8,7.5-2.1c2.6,0.9,4.7,1.5,7.1-0.3c0.3,0.3,0.2,0.6,0.1,0.9
	c0.2,0,0.4-0.1,0.6-0.1c0,0.1,0,0.2-0.1,0.3c4.6,0,6.8-0.9,5.3-4.9c0.7-0.1,0.4-0.4,1-0.3v-0.1c0.6-0.5,1-0.1,1.8,0
	c0-0.9,0.2-1.3,0.3-2.2c0.7-0.1,2.2-1.7,1.5-2.7c-0.3-0.4-1.7-2.6-2.3-1.3c0-0.3-1,0.3-1.1,0.4c0-2-4.4-0.9-4.4-2.2
	c0,0,2.9-1,3.4-1.8c0.7-1.1-2.1-1.3-2.1-1.3c0.4-1.5-2.4-0.1-4.3,0c-0.3,0.5-2-1.7-1.5-2.7c-0.7-0.3-1.8-0.6-2.3-0.6
	c-0.4-0.8-1.5,0.6-1.3,0.5v0.1c-0.3-0.6-1.1-0.4-2-0.5c-0.8-0.8-0.5-1.4-2-1c0,0.4-1.8,1.7-2.2,1.7c-0.5,0-0.7-0.5-1.2-0.5
	c-0.1-0.4-0.5-1-0.8-1c0.2-1.4-1.8-2.2-2.9-1.9c-1.1,0.8-2.6,1.6-3.5,1.1c-0.5-0.7-0.4-0.5-1.2-1h0.1c-1-1.4-2.9,2-2.8,2
	c0,1.2,0.7,2.1-1.3,1.5c0.3-1.7-1-0.2-2.1-0.6c-1.5-0.6-3.2,0.2-3,1.5c0.2,0.2,0.5,0.5,0,0.5c0,0-2.9,0.5-2.9,0.5
	c-0.6,0.6-2-0.3-2.7-0.3c-0.1-0.3,0.1-0.3-0.4-0.5c-7.5,0.7-4.5,3.5-4.5,3.4c-0.3-0.2-0.8-0.2-0.8-0.1c-0.1,0.1-0.3,0.1-0.4,0.1v0.2
	c-0.4,0.2-1.4,1.1-1.8,0.6c0,0.2-0.1,0.3-0.3,0.4v-0.1c-0.1,0.5-1.5,1.7-1.5,1.5c-0.5,0.3-0.8,0.3-1.5,0.4c0.3,0.3,0.8,0.8,1.1,0.9
	v-0.1c-1.9-0.3-2.3,2.2-2.4,3.7c-0.2,2.2,2,1.2,2.2,3.1c0.7-0.3,1.3-0.8,1.9-1.2c1.2-0.4,0.3,0.7,0.6,1.4c0.3,0.8,1.7,0.9,2.1,0.6
	c0.5-0.3,1.7-0.9,2.1-0.9c2.2,0.8,4.8,1.7,7.2,1.9c-0.3,1,1.3,1.1,2,1c0,0.5,0.2,0.7,0.8,0.6c0.8-0.3,4.4-1,4.2-0.2
	c3,1.3,3.4,0.2,5,2.7c0.6,1,4.2-0.3,1.3,4.5c-0.4,0.2-0.1,4.6,0,5.8c0.2,1.9-1.1,5.5-0.9,5.6c-0.6,0.4-1.1-0.2-1.1,0.2
	c-0.7-0.3-1.2,0.4-2-0.2c-0.3,0.1-0.6,0.3-0.8,0.6c-0.5,0-2.1,0.1-4.2,0.1c-0.3,0-1.1-0.4-1.4-0.4c-1.8,0.1-4.4,0.8-6.4,0.7
	c-4.5-0.3-7.7,0.4-8.6,0.6c8,0.1,39.4,0,47.4,0.1c-2.4-0.1-12.6-1.2-14.9-0.6c-0.3-0.7-1.4-1.1-2.3-1c0.1-0.4-0.1-0.3-0.5,0.1
	c-0.2-0.4-0.8,0.3-0.8-1.3c0-1.6-0.2-3.2-0.5-4.8c-0.1-0.6-0.7-2-0.5-2.5c0.8-1.8,2.7-3.3,1.9-5.1C190.7,98.7,188.8,98.6,190.9,97
	C190.9,97,190.6,97.2,190.9,97 M189.8,96.3c-0.1,0.4-0.3,0.7-0.8,0.7c0-0.8,0.4-0.9,1.2-1C190.1,96.1,189.9,96.1,189.8,96.3
	C189.8,96.3,189.9,96.1,189.8,96.3 M185,83.1c0,0.9-0.2,0.9-0.5,0.7l0.1-0.1c0,0.1,0.1,0.2,0.2,0.2v-0.1v0.1c-0.2,0-1.1,0.1-1.4,0.1
	c-0.1,1.4,0.8,2,0.9,3.2c1.2-0.7,4.2-0.9,3.4-2.7c-0.6,0.7-1.4,0.4-1.4-0.5C186.1,83.5,185.6,82,185,83.1
	C185,83.1,185.1,83,185,83.1"/>
<path fill="#FFFFFF" d="M125.7,49.8c3-0.3,5.6-0.9,8.6-0.2c1.7,0.4,3.3,1.1,4.3-0.5c2.3-3.7-1.9-7.4-1-11.5c-0.7,0-0.5,1.1-0.7,1.4
	c0-0.1,0-0.2,0-0.3c-0.3,1.5-1.9,0.5-2.9,1.3c-0.9,0.7-1.2,2.1-1.7,3.1c-0.4,0.9-0.7,1.9-1.2,2.7c-0.4,0.6-1.1,0.4-1.4,1
	c-0.1,0.1-1.1,3.5-1.8,2.6C126.2,47,126.7,49.3,125.7,49.8C125.7,49.8,126.1,49.6,125.7,49.8 M117.7,47.9c0.7,1.2,2,1.7,3.4,1.8
	c0.4,0,3.4,0.5,3.7,0c0-0.1-0.7-0.2-1,0c0-1.1,0.5-2.5,0.2-3.6c-0.2-0.6-1.5-1.1-1.9-1.5C121.7,45.4,118,47.7,117.7,47.9
	C117.7,47.9,118.2,47.5,117.7,47.9 M101.2,56.6h2.3c-0.9-3.3-2.7-6.1-3.1-9.5c0.2-0.1-0.2,4.4-1.1,2.1c-0.8,1-3.6,1.6-3.7,0.3
	c-0.1-0.4,0.8-0.8,0.8-1.3c0-1-0.8-1.3-0.4-2.4c0.3-0.8,0.5-1.6,0.3-2.4c-0.3,0.3-0.4,0.2-0.5-0.3c-0.4-0.1-2.4,2.4-3.4,2.2
	c0.4,0.2,0.2,0.8,0.6,1c-1,1.2-4,2.3-2.5,4.1c1.7-2.4,2.4-0.8,3.3,0.7c-0.1,0-0.2,0-0.3,0c0.4-0.9,5,1.7,5.9,1.9
	c-1.4,1.1,0.1,0.9,1.2,1.3C102.9,55.2,100.7,55.6,101.2,56.6C101.2,56.6,101.1,56.4,101.2,56.6 M100,56.6h0.9
	C100.6,56.4,100.2,56.3,100,56.6C100,56.6,100.2,56.3,100,56.6 M185.4,61.8c0.1,0.2,0.2,0.2,0.3,0C185.6,61.8,185.5,61.8,185.4,61.8
	C185.4,61.8,185.5,61.8,185.4,61.8 M184.8,59c0.1,0.7,0.2,1.3,0.4,1.9C186,59.2,185.5,60.1,184.8,59C184.8,59,185.1,59.4,184.8,59
	 M180.1,48.7c0.1-0.1,2.8-1.4,1.5-1.5c0,0.2-0.3,0.2-0.4,0.1C181,47.3,180.2,48.6,180.1,48.7C180.1,48.7,180.4,48.3,180.1,48.7
	 M174.3,54c-1.3,3.5-5.3,5.1-6.2,9c1.9-0.4,2.7-0.7,4.4,0.3c1.5,0.9,2.8,2.6,4.6,3c1.7,0.4,4.2-1.4,5.4-2.3c1.6-1.1,1.6-3.2,1.6-4.9
	c0-1.5-3.3-1.7-1.9-3.1c1-1-0.2-1.5,0.4-2.3c0.3-0.4,0.7-3.1,0.6-3.6c0-0.3-1.2-2.3-1.3-2.5c-0.5,0.5-2.3,1.2-2.2,1.9
	c0.1,1.3-1.3,0.2-1.6,0.8c-0.6,1.4,0.5,2.4-1.5,3.1c-0.4,0.2-0.8,0.1-1.1-0.2C175.3,53.9,174.9,54.1,174.3,54
	C174.3,54,174.8,54.1,174.3,54 M162.7,47.2c0.7-0.1,1.5-0.2,2.2-0.3c-0.1-0.5-1.1-1-1.1-1.2C163.2,46.1,163,46.5,162.7,47.2
	C162.7,47.2,163,46.5,162.7,47.2 M154.6,47.9c1.3-0.7,5.9,0.2,6.1-1.3c0.2-1.7-1.4-0.1-1.5-1.2c-0.1-0.5,0.1-2.4-0.6-2.5
	c-0.4,0-0.6,0.8-0.9,1c-0.5,0.2-1.4-4.4-0.4-4.2c0.9,0.2,1.3,0,1-0.9c-0.3-1-1.6,0.3-2,0.3c-0.8,0,0-1-0.3-0.9
	c-2.4,0.5-0.8,2.8-1.5,4.2c-1,2-0.6,2.3-0.6,4.4c0-0.5,0.5-1.8,1.3-1.1C155,46.3,154.2,47.2,154.6,47.9
	C154.6,47.9,154.2,47.2,154.6,47.9 M156.5,48.9c0,0,0.1,0,0.1,0.1C156.5,49,156.6,48.9,156.5,48.9C156.5,48.9,156.6,48.9,156.5,48.9
	 M146.9,43.3c-2.4,1.1-5.2,2-6,4.5c-0.3,1-1.3,1.6-1.5,2.7c-0.1,0.8,0.1,2-0.6,2.6c1.6-1.4,3.1-3.4,5.2-4c1.5-0.4,2.7,1,4.3,0.5
	c-0.6-0.6-1.1,0.2-1.6-0.9c-0.4-0.8,0.1-1.9,0.2-2.7c0-0.2,0.8-1.4,0.7-1.5C147.4,43.8,147.2,44.5,146.9,43.3
	C146.9,43.3,147,43.5,146.9,43.3 M114,59.4c-0.3-2-1.3-3.5-2.7-4.9c-1.5-1.5-1.3-0.7-3.1-1.2c-3.2-1-4.6-2-3.7-5.5
	c-2.2,1.3-1.1-0.9-1-1.9c0.2-2-1.4-1.1-1.7-1.3c-0.6-0.4-0.7,2-0.8,2.2c-0.4,0.9,0.1,1.5,0.3,2.3c0.7,2.3,2.3,4.3,3.3,6.5
	c1.1,2.5,1.6,3.2,4.4,3.9C110.2,59.7,113.3,61,114,59.4C114,59.4,113.7,60.1,114,59.4 M135.2,55.7c-0.1-9.5-15.7-0.8-18.3-6.5
	c-0.9,0.8-2.2,1-3.2,1.6c-1.1,0.6-1.8,1.7-3,2c2,1.3,2.6,2.9,3.4,4.9c0.5,1.5,1.6,0.6,2.7,1.4c0-3.5,3.1-0.7,5.1-0.7
	c1.7,0,5.1-1.4,6.1-2.7c0.4,0.5,1.1,0.5,1.6,0.9c0-0.1,0-0.2,0-0.4c0.9,1,2.3,1,2.3,2.3c1.5-0.9,4.1-0.1,2.5-2.9H135.2
	C135.2,55.7,134.9,55.7,135.2,55.7 M140.2,63.9c0.7,4.2,3.1,8.1,8.1,6.9c0.7-0.2-0.6-3.2,0.2-4.1c1.3-1.4,3.7-1.1,5.4-0.9
	c2.3,0.3,3.7-1.4,5.8-1.3c2.3,0.1,2.7-1.2,2.1-3.1c-0.8-2.4,1.6-5.7,1.8-8.1c0.1-2.1-1-3.3-2.3-4.8c2.1,0,1.3,1.1,2.3,1.9
	c0.4,0.3,3.3-0.2,3.7-0.4c0.2,1.7,1.4,2.5,1.8,3.9c0.1,0.2-0.3,2.2,0.6,1.3c-0.2,0.9,0.6,1.9,0.6,2.2c0,0.6-2.6,2.4-2.9,3.1
	c-1.1,1.8-1.1,2.6-3.4,3c0.3-3.1-0.3-6.2,0.5-9.4c0.2-0.9-0.1-2.8,0.8-3.4c0.5-0.3,2.2-0.3,2.1-1c0-0.4-0.3-1.8-0.7-2
	c-0.5,0.4-0.8,0.4-0.9-0.2c-0.1-0.4-0.3-0.5-0.6-0.2c-2,1.1-5.4,1.1-7.7,1.3c0.4,0.3,3.6,3.2,3.8,3c-1.2,1.4-2.1,4.4-3.4,3.2
	c0,2.4-2.3,1.2-2.3,2.7c0,0.9-3.9,1.3-3.7,1.2c-1.6-0.7-1.4-1.6-1.7-3.3c-0.2-1.4-1.4-5-3.4-5c-1.8,0.1-3.7,0.4-5.1,1.6
	c-2.1,1.8-2.4,4.7-2.8,7.2C138.7,61.7,139.4,62,140.2,63.9C140.2,63.9,139.9,63,140.2,63.9 M139.4,64.1c-0.2-0.3-0.5-0.7-0.8-1
	c0,0.9-0.1,1.7,0,2.6C138.7,66.3,139.9,65.1,139.4,64.1C139.4,64.1,139.6,64.5,139.4,64.1 M150.6,75.4c-0.6-0.8-0.9-1.8-1.6-2.6
	c-0.8-0.9-2.1,0-3.2-0.1c-3-0.2-4.8-4.7-7.3-6c0,4.8-1.1,12.9,4.3,15.3c0.6,0.3,1.6,1.4,2.3,1.4c0.5-0.2,1-0.4,1.5-0.5
	c1.5,0,1.9,0.2,2.8-1.2C151,79.7,151.9,77.9,150.6,75.4C150.6,75.4,151.1,76.4,150.6,75.4 M153.7,69.7c1.2-0.8,1.7-2.2,3.3-2.3
	c1.5-0.1,2.9-0.2,4.4-0.5c2.8-0.6,7.4-3,10.1-1.5c2.6,1.4,4.4,2.2,7.5,1.7c2-0.4,5.1-1.3,6.3-3.1c0.7,0.6,0.4,1.6,0.2,2.4
	c0.5,0.1,5.4,0.9,7,0c0.8-0.4,1.7,0.4,2.1-0.1c0.7-0.8,2.3-0.8,2.7-1.8c0,0,1.3-1.3,1.1-1.3c0.2,0,0.1-0.8,0.6-0.6
	c0.2,0.1-0.1-1.9,0.7-1.7c-0.8-1.5-1.2-2.3-1-4c-1,0.3,0.5-1.5-0.6-1.8c-0.7-0.2,1.8-1,1.8-0.9c0.7,0,0.1-0.7,0.1-1.1
	c1.3,0.7,2.6,0.5,4,1c0-0.5,0.2-5.6,1.3-5.5c2.2,0.2,0.7-1.9,1.6-2.9c0.7-0.7,1.3-0.4,1.4-1.8c0-0.6-0.3-3-0.7-3.5
	c-0.7-0.7-4.1-3.7-4.6-1.5c0-0.1,0-0.2,0-0.3c-0.7,0.5-2.2,0.7-2.5,1.3c0-1.4,0.3-1.9-1-2.5c-1.4-0.6-2.6-1.4-4.1-1.9
	c-0.8-0.3-3.4,0.3-3.8,0.4c-0.3,0.1-2.1-2.8-1.5-3.9c0,0,0-2.1-0.6-2c1.1-1.8-4.5-0.9-5.5-0.9c-0.8,0-0.4,4.2,0.5,4.4
	c-1.5,1.5-3.2,1.8-5,0.2c-1.5-1.4,0.9-2.9-0.6-3.7c2.3-1.2-2.5-1.9-3.1-1.8c-1.4,0.1-1.2-0.2-1.7-1.3c-0.4-0.8-0.9-0.7-0.5-1.7
	c0.2-0.5,0-1.6-0.9-1.4c0.4-0.4-0.8-3.3-0.8-4c0.4,0.4-3-1.2-3.3-1.8c-0.8-1.5-0.9-2-2.8-2.1c-1.5-0.1-0.6,0.4-1.1,1
	c-0.5,0.7-2,0.9-2.6,1.7c-0.7,0.8-1.8,2.1-3.1,1.4c-0.2-0.1-1.9-1-1.7-1.1c0.6-0.7-0.7-1.5-1.3-1.4c0.4-0.4-1.1-3.6-1.6-3.8
	c-1-0.4-0.4-1-1.5-1.5c-1.1-0.5-2.3-0.4-3.5-0.1c-1.6,0.4-3.2,1.7-4.4,2.7c-1.5,1.2-2.8-0.9-3.3-0.2c-0.6-1.7-6.5,0.6-5.8,3.2
	c-1-0.2-1.6-0.8-2.5-0.8c0.1,0.3-0.2,4.9-2.1,4.2c-0.7-0.2-0.9-3.5-1.7-2.5c-1.2,1.6-3.9,0.6-5.5,0.1c-0.4-0.1-1.4-0.7-1.8-0.3
	c-0.3,0.2-0.7,1.6-0.9,1.6c-0.3-0.1-2,0.4-2,1.2c0,0.6,0.4,1.6,0.6,2.1c0.6,1.4-1.3,0.5-2,0.8c-0.9,0.4-1.7,1.7-2.8,1.7
	c-0.5-0.1-1-0.3-1.5-0.5c-0.4,0.3-0.9,0.5-1.4,0.6c-1.7-0.2-5.1-2.2-5.7-2.4c-0.3,1.4-0.5,2.8-0.9,4.2c-0.4,1.5,0.7,1.2,1,2.3
	c0.1,0.6-1.2,0.7-0.9,2c0.2,0.7,1.4,1.4,1.7,1.4c-0.7,1.6-1.5,0.3-1.7,2.3c-0.3,3.2-2.2,0.3-2.8-1c-0.2,0.1-0.8,0.9-0.8,0.4
	c-0.1,0.2-0.2,0.3-0.3,0.5c-0.2-0.6,0.3-3.6-0.9-3.2c-0.1,0-1.4,1.4-0.6,1.2c-0.4,0-1.3,0.3-2.1-0.6c-0.2-0.3-1.3-1.5-1.6-1.6
	c0,0.1,0,0.2,0,0.3c-0.4-0.8-1.7-0.2-1.7-0.3c-0.9,1-3.3,2.4-4.7,2.7c0-0.2-0.4,0.4-0.8,0.7c0,0-0.4,1.1-0.8,1.9
	c-0.5,0.9-4.6,2.7-5.7,2.5c0.7,0.7,1.4,1.8,2.3,2.2v-0.1c-0.6,0.4-1.9-0.7-2,0.2c-0.1,0.7-0.5,1.3-1.1,1.8c-2,2-1.8,3-2.1,5.7
	c-0.2,1.8-0.9,4.2,1.1,5.2c1.8,0.9,3.7,1.3,3.7,3.6c1.1-0.2,5.6-4.9,5.6-2.1c0,0.8-0.4,1.7-0.2,2.5c0.3,1.4,1.9,1,2.8,1.6
	c1.4,0.9,1.4-0.2,2.9-0.2c2,0,0.9-1.6,2.2-2.1c1.4-0.5,2.6,1,4,1.1c1.5,0.1,2.5,1.2,4,1.6c2.8,0.9,5.9,1.3,8.8,2
	c-0.6,2.5,4.3,2.2,4.2,2.7c-0.4,2.3,3.5,0.3,4.4,0.7c1.7,0.8,3.2-0.1,4.7-0.9c1-0.5,2.5-0.4,1.7,1c0.5,0,1.5,0.2,1.8-0.3
	c0.9,1.2,0.8,2.1,2.5,1.9c0,3.9,0.2,8.9,1,13c0.4,2.2,0.9,3.9,2.9,5.2c1.5,1.1,3.5,1.8,4.2,3.7c0.7,1.9,0.5,4.1,1,6
	c0.7,2.3,0.9,4.6,0.9,7.1c0,2.5-0.2,4.9-0.6,7.3c-0.1,0.9-2.5,0.7-3.1,0.8c0.4,0.4,0.8,0.7,1.3,1.1c-1.6,0.4-1.7-0.2-2.5-1.8
	c0.1,0.8,0.3,1.4,0.1,2.2c-1.1-0.9-1.2,0.1-2.4,0.2c-0.4,0-1.6-0.6-1.9-0.4c-1.2,0.8-1.8,1-3.1,1.4c-1,0.3-1.6,0.9-2.6,1
	c-0.9,0.1-1.6-0.5-2.4-0.3c-2.3,0.5-5.1,0.4-7.2,1.4c17.3,0.3,34.7,0.5,52,0.8c-3.1-0.3-6.1-1.1-9.2-1c-1.4,0.1-2.2-0.7-3.6-0.6
	c-1,0.1-1.9,0.1-2.9,0.5c-0.1-0.6,0.1-2.3-0.5-2.8c-0.4-0.2-0.8-0.2-1.2-0.2c0-0.2,0-0.4,0.1-0.5c-0.2-0.2-1.1,0.6-1.2,0.7
	c-0.1-1.1,0.1-1.5,0.9-2.2c-0.7,0.3-2.3,3.4-2.6,1.7c-0.3-1.7,0.3-3.4-0.1-5.1c-0.6-3,0.2-5.9-0.2-8.8c-0.3-2.1-2.5-4.8-1.6-6.9
	c0.9-2.3,2.5-4.6,3.5-7c0.8-1.8,2.1-3.1,3-4.8c0.5-0.9-2.5-3.5-3.1-4.5c-0.2-0.4-1.8-3.1-1.3-3.4C152.5,70.4,153.2,70.2,153.7,69.7
	C153.7,69.7,153.3,70.1,153.7,69.7 M151.5,67.9c-0.3,0.8-0.7,1.4-1.6,1.9c0.7-1.8,0.5-2.2,2.5-2.6C152.1,67.4,151.7,67.6,151.5,67.9
	C151.5,67.9,151.7,67.6,151.5,67.9 M141.3,35.8c-0.1,0.6-0.4,1.3-0.8,1.8c-0.1-0.1-0.2-0.2-0.3-0.3c0,0,0.1-0.1,0.1-0.1
	c0,0.2,0.1,0.4,0.3,0.4c0-0.1,0.1-0.2,0.1-0.3c-0.2,0.3-0.6,0.2-0.4,0.7c-1.5-1.2-3-0.5-2.7,1.3c0.3,2.3,1.6,4.1,2,6.3
	c2.1-1.4,4.2-2.1,6.5-3c1.6-0.6,0.7-4.2,0.1-3.4c-1.3,1.9-2-0.2-2.4-1.6c-0.2-0.6-0.9-0.6-0.9-1.6c0-1.1-0.2-1.1-1.2-1.5
	C141.6,35,141.4,35.4,141.3,35.8C141.3,35.8,141.4,35.4,141.3,35.8"/>
<g>
	<path fill="#FFFFFF" d="M71.8,160.4c0-10.1,3.2-18.8,9.5-26c6.3-7.2,14.7-10.8,25-10.8c9.1,0,16.7,3.3,23,9.9
		c6.3,6.6,9.5,15.1,9.5,25.3c0,11.2-3.2,20.2-9.5,27c-6.4,6.8-14.5,10.2-24.3,10.2c-9.6,0-17.5-3.4-23.7-10.1
		C75,179.1,71.8,170.7,71.8,160.4z M126.9,162.5c0-11.2-2-19.6-5.9-25.3c-4-5.7-9.6-8.6-16.9-8.6c-6.2,0-11,2.5-14.6,7.5
		c-3.6,5-5.4,12.1-5.4,21.3c0,10.2,2,18.3,6.1,24.3c4.1,6.1,9.7,9.1,16.9,9.1c6.4,0,11.3-2.4,14.7-7.2
		C125.2,178.8,126.9,171.8,126.9,162.5z"/>
</g>
<g>
	<path fill="#FFFFFF" d="M38.1,124.5c4.3,0.1,8.5,0.2,12.5,0.2c4,0,8.1-0.1,12.4-0.2l0.3,2.2l-6.2,1.9c-0.8,0.2-1.3,0.7-1.4,1.6
		c0,1.2-0.1,2.5-0.1,3.8c0,1.4,0,2.9,0,4.5V184c0,3.3-0.1,6.3-0.4,9c-0.3,2.7-0.7,5.1-1.3,7.2c-0.6,2.1-1.5,4-2.7,5.7
		c-1.2,1.7-2.6,3.1-4.4,4.4c-1.8,1.3-3.9,2.4-6.4,3.4c-2.5,1-5.5,1.9-8.9,2.7l-0.8-2.5c3.5-1.5,6.2-3.1,8.2-4.9
		c2-1.8,3.5-3.8,4.5-6.1c1-2.3,1.7-4.8,2-7.7c0.3-2.8,0.4-6.1,0.4-9.6v-46.8c0-1.7,0-3.2,0-4.6c0-1.4,0-2.6-0.1-3.7
		c0-0.9-0.4-1.4-1.2-1.7l-6.2-2L38.1,124.5z"/>
	<path fill="#FFFFFF" d="M174.6,159.1l11.6-22c0.8-1.6,1.5-3,2.1-4.1c0.6-1.1,0.9-2.1,0.9-2.8c0-1-0.7-1.8-2.2-2.2l-4.5-1.2
		l-0.1-2.3c3.6,0.1,7.3,0.2,11.1,0.2c3.7,0,7.2-0.1,10.7-0.2l0.2,2.2l-5.1,1.6c-1.2,0.4-2.1,1-2.8,1.8c-0.7,0.8-1.3,1.8-2,3
		l-17.4,31v15.3c0,2,0,3.8,0,5.5c0,1.6,0,3.1,0.1,4.5c0,0.8,0.6,1.4,1.8,1.7l6.2,1.9l0.1,2.2c-4.7-0.1-9-0.2-13-0.2
		c-4.1,0-8.4,0-13,0.2l-0.2-2.2l6.7-2c0.8-0.2,1.3-0.8,1.4-1.6c0-1.3,0.1-2.8,0.1-4.5c0-1.7,0-3.5,0-5.5v-14.2l-17.7-30.7
		c-1.2-2-2.3-3.5-3-4.4c-0.8-0.9-1.8-1.5-3.1-1.9l-4.6-1.4l-0.1-2.2c3,0.1,7.2,0.2,12.4,0.2c4.5,0,9.2-0.1,14-0.2l0.2,2.2l-4.7,1.3
		c-0.7,0.2-1.2,0.4-1.5,0.7c-0.3,0.3-0.5,0.7-0.5,1.2c0,0.7,0.3,1.6,0.8,2.6s1.2,2.2,1.9,3.5L174.6,159.1z"/>
</g>
<text transform="matrix(1 0 0 1 37.3618 114.7177)" fill="#FFFFFF" font-family="'Constantia'" font-size="29.1374">CAMP</text>
</svg>
